RobotoDelta-opszmax-wghtmax-wdthmax.ufo
<glyph name="parenright" format="1">
  <advance width="756"/>
  <unicode hex="0029"/>
  <outline>
    <contour>
      <point x="13" y="-436" type="line"/>
      <point x="303" y="-334"/>
      <point x="675" y="129"/>
      <point x="675" y="515" type="qcurve" smooth="yes"/>
      <point x="675" y="525" type="line" smooth="yes"/>
      <point x="675" y="911"/>
      <point x="303" y="1374"/>
      <point x="13" y="1476" type="qcurve"/>
      <point x="13" y="1238" type="line"/>
      <point x="151" y="1172"/>
      <point x="338" y="831"/>
      <point x="338" y="532" type="qcurve" smooth="yes"/>
      <point x="338" y="508" type="line" smooth="yes"/>
      <point x="338" y="210"/>
      <point x="151" y="-132"/>
      <point x="13" y="-198" type="qcurve"/>
    </contour>
  </outline>
</glyph>
<glyph name="plus" format="1">
  <advance width="1085"/>
  <unicode hex="002B"/>
  <outline>
    <contour>
      <point x="54" y="553" type="line"/>
      <point x="1031" y="553" type="line"/>
      <point x="1031" y="795" type="line"/>
      <point x="54" y="795" type="line"/>
    </contour>
    <contour>
      <point x="380" y="161" type="line"/>
      <point x="705" y="161" type="line"/>
      <point x="705" y="1187" type="line"/>
      <point x="380" y="1187" type="line"/>
    </contour>
  </outline>
</glyph>
<glyph name="one" format="1">
  <advance width="1318"/>
  <unicode hex="0031"/>
  <outline>
    <contour>
      <point x="577" y="0" type="line"/>
      <point x="929" y="0" type="line"/>
      <point x="929" y="1476" type="line"/>
      <point x="721" y="1476" type="line"/>
      <point x="229" y="1302" type="line"/>
      <point x="228" y="1049" type="line"/>
      <point x="577" y="1164" type="line"/>
    </contour>
  </outline>
</glyph>
<glyph name="at" format="1">
  <advance width="2376"/>
  <unicode hex="0040"/>
  <outline>
    <contour>
      <point x="654" y="400" type="qcurve" smooth="yes"/>
      <point x="654" y="220"/>
      <point x="867" y="0"/>
      <point x="1054" y="0" type="qcurve" smooth="yes"/>
      <point x="1140" y="0"/>
      <point x="1296" y="99"/>
      <point x="1347" y="178" type="qcurve"/>
      <point x="1387" y="99"/>
      <point x="1571" y="0"/>
      <point x="1691" y="0" type="qcurve" smooth="yes"/>
      <point x="1957" y="0"/>
      <point x="2305" y="360"/>
      <point x="2305" y="650" type="qcurve" smooth="yes"/>
      <point x="2305" y="1000"/>
      <point x="1716" y="1486"/>
      <point x="1227" y="1486" type="qcurve" smooth="yes"/>
      <point x="750" y="1486"/>
      <point x="72" y="880"/>
      <point x="72" y="460" type="qcurve" smooth="yes"/>
      <point x="72" y="40"/>
      <point x="695" y="-446"/>
      <point x="1134" y="-446" type="qcurve" smooth="yes"/>
      <point x="1264" y="-446"/>
      <point x="1441" y="-400"/>
      <point x="1507" y="-356" type="qcurve"/>
      <point x="1507" y="-139" type="line"/>
      <point x="1445" y="-175"/>
      <point x="1264" y="-229"/>
      <point x="1134" y="-229" type="qcurve" smooth="yes"/>
      <point x="824" y="-229"/>
      <point x="412" y="129"/>
      <point x="412" y="460" type="qcurve" smooth="yes"/>
      <point x="412" y="795"/>
      <point x="881" y="1269"/>
      <point x="1227" y="1269" type="qcurve" smooth="yes"/>
      <point x="1578" y="1269"/>
      <point x="1966" y="897"/>
      <point x="1966" y="650" type="qcurve" smooth="yes"/>
      <point x="1966" y="442"/>
      <point x="1823" y="182"/>
      <point x="1711" y="182" type="qcurve" smooth="yes"/>
      <point x="1653" y="182"/>
      <point x="1591" y="257"/>
      <point x="1607" y="350" type="qcurve" smooth="yes"/>
      <point x="1719" y="946" type="line"/>
      <point x="1503" y="946" type="line"/>
      <point x="1453" y="986"/>
      <point x="1309" y="1052"/>
      <point x="1221" y="1052" type="qcurve" smooth="yes"/>
      <point x="997" y="1052"/>
      <point x="654" y="680"/>
    </contour>
    <contour>
      <point x="971" y="400" type="qcurve" smooth="yes"/>
      <point x="971" y="596"/>
      <point x="1120" y="856"/>
      <point x="1235" y="856" type="qcurve" smooth="yes"/>
      <point x="1271" y="856"/>
      <point x="1344" y="836"/>
      <point x="1372" y="817" type="qcurve"/>
      <point x="1308" y="418" type="line" smooth="yes"/>
      <point x="1285" y="300"/>
      <point x="1173" y="206"/>
      <point x="1105" y="206" type="qcurve" smooth="yes"/>
      <point x="1041" y="206"/>
      <point x="971" y="305"/>
    </contour>
  </outline>
</glyph>
<glyph name="B" format="1">
  <advance width="1442"/>
  <unicode hex="0042"/>
  <outline>
    <contour>
      <point x="155" y="0" type="line"/>
      <point x="771" y="0" type="line" smooth="yes"/>
      <point x="1057" y="0"/>
      <point x="1390" y="217"/>
      <point x="1390" y="416" type="qcurve" smooth="yes"/>
      <point x="1390" y="556"/>
      <point x="1244" y="733"/>
      <point x="1121" y="764" type="qcurve"/>
      <point x="1121" y="768" type="line"/>
      <point x="1223" y="798"/>
      <point x="1347" y="953"/>
      <point x="1347" y="1073" type="qcurve" smooth="yes"/>
      <point x="1347" y="1267"/>
      <point x="1024" y="1456"/>
      <point x="737" y="1456" type="qcurve" smooth="yes"/>
      <point x="155" y="1456" type="line"/>
    </contour>
    <contour>
      <point x="499" y="233" type="line"/>
      <point x="499" y="645" type="line"/>
      <point x="771" y="645" type="line" smooth="yes"/>
      <point x="909" y="645"/>
      <point x="1047" y="532"/>
      <point x="1047" y="431" type="qcurve" smooth="yes"/>
      <point x="1047" y="339"/>
      <point x="909" y="233"/>
      <point x="771" y="233" type="qcurve" smooth="yes"/>
    </contour>
    <contour>
      <point x="499" y="871" type="line"/>
      <point x="499" y="1223" type="line"/>
      <point x="737" y="1223" type="line" smooth="yes"/>
      <point x="872" y="1223"/>
      <point x="1003" y="1136"/>
      <point x="1003" y="1056" type="qcurve" smooth="yes"/>
      <point x="1003" y="969"/>
      <point x="872" y="872"/>
      <point x="737" y="871" type="qcurve" smooth="yes"/>
    </contour>
  </outline>
</glyph>
<glyph name="C" format="1">
  <advance width="1495"/>
  <unicode hex="0043"/>
  <outline>
    <contour>
      <point x="68" y="684" type="line" smooth="yes"/>
      <point x="68" y="343"/>
      <point x="470" y="-28"/>
      <point x="794" y="-28" type="qcurve" smooth="yes"/>
      <point x="1111" y="-28"/>
      <point x="1462" y="256"/>
      <point x="1462" y="482" type="qcurve" smooth="yes"/>
      <point x="1462" y="497" type="line"/>
      <point x="1113" y="497" type="line"/>
      <point x="1113" y="484" type="line" smooth="yes"/>
      <point x="1113" y="375"/>
      <point x="949" y="224"/>
      <point x="799" y="224" type="qcurve"/>
      <point x="624" y="224"/>
      <point x="421" y="462"/>
      <point x="421" y="684" type="qcurve" smooth="yes"/>
      <point x="421" y="772" type="line" smooth="yes"/>
      <point x="421" y="993"/>
      <point x="625" y="1232"/>
      <point x="799" y="1232" type="qcurve"/>
      <point x="949" y="1232"/>
      <point x="1113" y="1084"/>
      <point x="1113" y="972" type="qcurve" smooth="yes"/>
      <point x="1113" y="959" type="line"/>
      <point x="1462" y="959" type="line"/>
      <point x="1462" y="974" type="line" smooth="yes"/>
      <point x="1462" y="1199"/>
      <point x="1111" y="1484"/>
      <point x="794" y="1484" type="qcurve" smooth="yes"/>
      <point x="469" y="1484"/>
      <point x="68" y="1112"/>
      <point x="68" y="772" type="qcurve" smooth="yes"/>
    </contour>
    <contour>
      <point x="760" y="0" type="move" name="bottom"/>
    </contour>
  </outline>
</glyph>
<glyph name="E" format="1">
  <advance width="1230"/>
  <unicode hex="0045"/>
  <outline>
    <contour>
      <point x="118" y="0" type="line"/>
      <point x="1207" y="0" type="line"/>
      <point x="1207" y="244" type="line"/>
      <point x="463" y="244" type="line"/>
      <point x="463" y="629" type="line"/>
      <point x="1092" y="629" type="line"/>
      <point x="1092" y="873" type="line"/>
      <point x="463" y="873" type="line"/>
      <point x="463" y="1212" type="line"/>
      <point x="1196" y="1212" type="line"/>
      <point x="1196" y="1456" type="line"/>
      <point x="118" y="1456" type="line"/>
    </contour>
    <contour>
      <point x="651" y="1431" type="move" name="top"/>
    </contour>
  </outline>
</glyph>
<glyph name="K" format="1">
  <advance width="1349"/>
  <unicode hex="004B"/>
  <outline>
    <contour>
      <point x="122" y="0" type="line"/>
      <point x="466" y="0" type="line"/>
      <point x="466" y="434" type="line"/>
      <point x="1370" y="1456" type="line"/>
      <point x="978" y="1456" type="line"/>
      <point x="466" y="821" type="line"/>
      <point x="466" y="1456" type="line"/>
      <point x="122" y="1456" type="line"/>
    </contour>
    <contour>
      <point x="999" y="0" type="line"/>
      <point x="1414" y="0" type="line"/>
      <point x="754" y="917" type="line"/>
      <point x="519" y="716" type="line"/>
    </contour>
  </outline>
</glyph>
<glyph name="P" format="1">
  <advance width="1404"/>
  <unicode hex="0050"/>
  <outline>
    <contour>
      <point x="122" y="0" type="line"/>
      <point x="466" y="0" type="line"/>
      <point x="466" y="498" type="line"/>
      <point x="709" y="498" type="line" smooth="yes"/>
      <point x="1009" y="498"/>
      <point x="1334" y="760"/>
      <point x="1334" y="986" type="qcurve" smooth="yes"/>
      <point x="1334" y="1205"/>
      <point x="1009" y="1456"/>
      <point x="709" y="1456" type="qcurve" smooth="yes"/>
      <point x="122" y="1456" type="line"/>
    </contour>
    <contour>
      <point x="466" y="742" type="line"/>
      <point x="466" y="1212" type="line"/>
      <point x="709" y="1212" type="line" smooth="yes"/>
      <point x="855" y="1212"/>
      <point x="990" y="1087"/>
      <point x="990" y="986" type="qcurve" smooth="yes"/>
      <point x="990" y="880"/>
      <point x="855" y="742"/>
      <point x="709" y="742" type="qcurve" smooth="yes"/>
    </contour>
  </outline>
</glyph>
<glyph name="S" format="1">
  <advance width="1366"/>
  <unicode hex="0053"/>
  <outline>
    <contour>
      <point x="48" y="415" type="line" smooth="yes"/>
      <point x="48" y="209"/>
      <point x="393" y="-28"/>
      <point x="691" y="-28" type="qcurve" smooth="yes"/>
      <point x="991" y="-28"/>
      <point x="1329" y="218"/>
      <point x="1329" y="418" type="qcurve" smooth="yes"/>
      <point x="1329" y="614"/>
      <point x="1075" y="825"/>
      <point x="800" y="886" type="qcurve" smooth="yes"/>
      <point x="548" y="942"/>
      <point x="416" y="1015"/>
      <point x="416" y="1087" type="qcurve" smooth="yes"/>
      <point x="416" y="1158"/>
      <point x="551" y="1236"/>
      <point x="683" y="1236" type="qcurve" smooth="yes"/>
      <point x="818" y="1236"/>
      <point x="959" y="1135"/>
      <point x="959" y="1049" type="qcurve"/>
      <point x="959" y="1019" type="line"/>
      <point x="1303" y="1019" type="line"/>
      <point x="1303" y="1049" type="line" smooth="yes"/>
      <point x="1303" y="1236"/>
      <point x="974" y="1484"/>
      <point x="683" y="1484" type="qcurve" smooth="yes"/>
      <point x="395" y="1484"/>
      <point x="73" y="1243"/>
      <point x="73" y="1052" type="qcurve" smooth="yes"/>
      <point x="73" y="865"/>
      <point x="320" y="662"/>
      <point x="593" y="602" type="qcurve" smooth="yes"/>
      <point x="845" y="546"/>
      <point x="985" y="462"/>
      <point x="985" y="383" type="qcurve" smooth="yes"/>
      <point x="985" y="308"/>
      <point x="833" y="221"/>
      <point x="691" y="221" type="qcurve" smooth="yes"/>
      <point x="548" y="221"/>
      <point x="392" y="319"/>
      <point x="392" y="415" type="qcurve"/>
      <point x="392" y="447" type="line"/>
      <point x="48" y="447" type="line"/>
    </contour>
  </outline>
</glyph>
<glyph name="Y" format="1">
  <advance width="1274"/>
  <unicode hex="0059"/>
  <outline>
    <contour>
      <point x="468" y="0" type="line"/>
      <point x="808" y="0" type="line"/>
      <point x="808" y="512" type="line"/>
      <point x="1302" y="1456" type="line"/>
      <point x="979" y="1456" type="line"/>
      <point x="717" y="920" type="line" smooth="yes"/>
      <point x="702" y="890"/>
      <point x="677" y="831"/>
      <point x="665" y="801" type="qcurve"/>
      <point x="661" y="801" type="line"/>
      <point x="650" y="831"/>
      <point x="624" y="890"/>
      <point x="609" y="920" type="qcurve" smooth="yes"/>
      <point x="346" y="1456" type="line"/>
      <point x="-27" y="1456" type="line"/>
      <point x="468" y="512" type="line"/>
    </contour>
    <contour>
      <point x="673" y="1431" type="move" name="top"/>
    </contour>
  </outline>
</glyph>
<glyph name="bracketleft" format="1">
  <advance width="717"/>
  <unicode hex="005B"/>
  <outline>
    <contour>
      <point x="102" y="-310" type="line"/>
      <point x="712" y="-310" type="line"/>
      <point x="712" y="-82" type="line"/>
      <point x="438" y="-82" type="line"/>
      <point x="438" y="1228" type="line"/>
      <point x="712" y="1228" type="line"/>
      <point x="712" y="1456" type="line"/>
      <point x="102" y="1456" type="line"/>
    </contour>
  </outline>
</glyph>
<glyph name="e" format="1">
  <advance width="1218"/>
  <unicode hex="0065"/>
  <outline>
    <contour>
      <point x="42" y="457" type="line" smooth="yes"/>
      <point x="42" y="238"/>
      <point x="355" y="-27"/>
      <point x="640" y="-27" type="qcurve"/>
      <point x="824" y="-27"/>
      <point x="1078" y="77"/>
      <point x="1131" y="151" type="qcurve"/>
      <point x="956" y="300" type="line"/>
      <point x="921" y="253"/>
      <point x="760" y="193"/>
      <point x="654" y="193" type="qcurve"/>
      <point x="500" y="193"/>
      <point x="349" y="340"/>
      <point x="349" y="457" type="qcurve" smooth="yes"/>
      <point x="349" y="486" type="line" smooth="yes"/>
      <point x="349" y="603"/>
      <point x="488" y="756"/>
      <point x="626" y="756" type="qcurve"/>
      <point x="741" y="756"/>
      <point x="859" y="652"/>
      <point x="859" y="563" type="qcurve"/>
      <point x="859" y="580" type="line"/>
      <point x="279" y="580" type="line"/>
      <point x="279" y="398" type="line"/>
      <point x="1171" y="398" type="line"/>
      <point x="1171" y="501" type="line" smooth="yes"/>
      <point x="1171" y="720"/>
      <point x="885" y="971"/>
      <point x="624" y="971" type="qcurve"/>
      <point x="351" y="971"/>
      <point x="42" y="705"/>
      <point x="42" y="486" type="qcurve" smooth="yes"/>
    </contour>
    <contour>
      <point x="606" y="972" type="move" name="top"/>
    </contour>
  </outline>
</glyph>
<glyph name="f" format="1">
  <advance width="693"/>
  <unicode hex="0066"/>
  <outline>
    <contour>
      <point x="164" y="0" type="line"/>
      <point x="476" y="0" type="line"/>
      <point x="476" y="844" type="line"/>
      <point x="476" y="862" type="line"/>
      <point x="476" y="1088" type="line" smooth="yes"/>
      <point x="476" y="1170"/>
      <point x="562" y="1259"/>
      <point x="641" y="1259" type="qcurve" smooth="yes"/>
      <point x="660" y="1259"/>
      <point x="706" y="1254"/>
      <point x="730" y="1249" type="qcurve"/>
      <point x="742" y="1464" type="line"/>
      <point x="713" y="1471"/>
      <point x="654" y="1478"/>
      <point x="627" y="1478" type="qcurve" smooth="yes"/>
      <point x="409" y="1478"/>
      <point x="164" y="1278"/>
      <point x="164" y="1088" type="qcurve" smooth="yes"/>
    </contour>
    <contour>
      <point x="13" y="731" type="line"/>
      <point x="677" y="731" type="line"/>
      <point x="677" y="944" type="line"/>
      <point x="347" y="944" type="line"/>
      <point x="307" y="944" type="line"/>
      <point x="13" y="944" type="line"/>
    </contour>
  </outline>
</glyph>
<glyph name="i" format="1">
  <advance width="490"/>
  <unicode hex="0069"/>
  <outline>
    <contour>
      <point x="89" y="0" type="line"/>
      <point x="401" y="0" type="line"/>
      <point x="401" y="944" type="line"/>
      <point x="89" y="944" type="line"/>
    </contour>
    <contour>
      <point x="64" y="1220" type="qcurve" smooth="yes"/>
      <point x="64" y="1147"/>
      <point x="159" y="1056"/>
      <point x="245" y="1056" type="qcurve" smooth="yes"/>
      <point x="332" y="1056"/>
      <point x="425" y="1147"/>
      <point x="425" y="1220" type="qcurve" smooth="yes"/>
      <point x="425" y="1292"/>
      <point x="332" y="1385"/>
      <point x="245" y="1385" type="qcurve" smooth="yes"/>
      <point x="159" y="1385"/>
      <point x="64" y="1293"/>
    </contour>
  </outline>
</glyph>
<glyph name="j" format="1">
  <advance width="490"/>
  <unicode hex="006A"/>
  <outline>
    <contour>
      <point x="-136" y="-366" type="line"/>
      <point x="-103" y="-375"/>
      <point x="-10" y="-388"/>
      <point x="24" y="-388" type="qcurve" smooth="yes"/>
      <point x="208" y="-388"/>
      <point x="401" y="-236"/>
      <point x="401" y="-80" type="qcurve" smooth="yes"/>
      <point x="401" y="944" type="line"/>
      <point x="89" y="944" type="line"/>
      <point x="89" y="-57" type="line" smooth="yes"/>
      <point x="89" y="-114"/>
      <point x="30" y="-171"/>
      <point x="-24" y="-171" type="qcurve" smooth="yes"/>
      <point x="-50" y="-171"/>
      <point x="-112" y="-160"/>
      <point x="-136" y="-154" type="qcurve"/>
    </contour>
    <contour>
      <point x="64" y="1220" type="qcurve" smooth="yes"/>
      <point x="64" y="1147"/>
      <point x="159" y="1056"/>
      <point x="246" y="1056" type="qcurve" smooth="yes"/>
      <point x="333" y="1056"/>
      <point x="426" y="1147"/>
      <point x="426" y="1220" type="qcurve" smooth="yes"/>
      <point x="426" y="1292"/>
      <point x="332" y="1385"/>
      <point x="246" y="1385" type="qcurve" smooth="yes"/>
      <point x="159" y="1385"/>
      <point x="64" y="1293"/>
    </contour>
  </outline>
</glyph>
<glyph name="l" format="1">
  <advance width="475"/>
  <unicode hex="006C"/>
  <outline>
    <contour>
      <point x="81" y="0" type="line"/>
      <point x="393" y="0" type="line"/>
      <point x="393" y="1457" type="line"/>
      <point x="81" y="1457" type="line"/>
    </contour>
  </outline>
</glyph>
<glyph name="o" format="1">
  <advance width="1279"/>
  <unicode hex="006F"/>
  <outline>
    <contour>
      <point x="42" y="457" type="line" smooth="yes"/>
      <point x="42" y="239"/>
      <point x="359" y="-27"/>
      <point x="640" y="-27" type="qcurve" smooth="yes"/>
      <point x="919" y="-27"/>
      <point x="1237" y="239"/>
      <point x="1237" y="457" type="qcurve" smooth="yes"/>
      <point x="1237" y="486" type="line" smooth="yes"/>
      <point x="1237" y="704"/>
      <point x="919" y="971"/>
      <point x="640" y="971" type="qcurve" smooth="yes"/>
      <point x="359" y="971"/>
      <point x="42" y="704"/>
      <point x="42" y="486" type="qcurve" smooth="yes"/>
    </contour>
    <contour>
      <point x="361" y="486" type="line" smooth="yes"/>
      <point x="361" y="600"/>
      <point x="504" y="749"/>
      <point x="640" y="749" type="qcurve" smooth="yes"/>
      <point x="775" y="749"/>
      <point x="917" y="600"/>
      <point x="917" y="486" type="qcurve" smooth="yes"/>
      <point x="917" y="457" type="line" smooth="yes"/>
      <point x="917" y="344"/>
      <point x="775" y="194"/>
      <point x="640" y="194" type="qcurve" smooth="yes"/>
      <point x="504" y="194"/>
      <point x="361" y="344"/>
      <point x="361" y="457" type="qcurve" smooth="yes"/>
    </contour>
    <contour>
      <point x="628" y="972" type="move" name="top"/>
    </contour>
  </outline>
</glyph>
<glyph name="q" format="1">
  <advance width="1263"/>
  <unicode hex="0071"/>
  <outline>
    <contour>
      <point x="42" y="457" type="line" smooth="yes"/>
      <point x="42" y="244"/>
      <point x="311" y="-17"/>
      <point x="546" y="-17" type="qcurve" smooth="yes"/>
      <point x="655" y="-17"/>
      <point x="821" y="48"/>
      <point x="870" y="108" type="qcurve"/>
      <point x="870" y="-416" type="line"/>
      <point x="1181" y="-416" type="line"/>
      <point x="1181" y="944" type="line"/>
      <point x="885" y="944" type="line"/>
      <point x="878" y="827" type="line"/>
      <point x="874" y="827" type="line"/>
      <point x="831" y="888"/>
      <point x="657" y="963"/>
      <point x="547" y="963" type="qcurve" smooth="yes"/>
      <point x="311" y="963"/>
      <point x="42" y="700"/>
      <point x="42" y="486" type="qcurve" smooth="yes"/>
    </contour>
    <contour>
      <point x="362" y="457" type="qcurve" smooth="yes"/>
      <point x="362" y="486" type="line" smooth="yes"/>
      <point x="362" y="599"/>
      <point x="494" y="742"/>
      <point x="624" y="742" type="qcurve" smooth="yes"/>
      <point x="716" y="742"/>
      <point x="844" y="672"/>
      <point x="870" y="620" type="qcurve"/>
      <point x="870" y="325" type="line"/>
      <point x="843" y="272"/>
      <point x="715" y="202"/>
      <point x="624" y="202" type="qcurve" smooth="yes"/>
      <point x="494" y="202"/>
      <point x="362" y="344"/>
    </contour>
  </outline>
</glyph>
<glyph name="y" format="1">
  <advance width="1026"/>
  <unicode hex="0079"/>
  <outline>
    <contour>
      <point x="85" y="-417" type="line"/>
      <point x="112" y="-427"/>
      <point x="176" y="-434"/>
      <point x="219" y="-434" type="qcurve" smooth="yes"/>
      <point x="363" y="-434"/>
      <point x="581" y="-303"/>
      <point x="640" y="-143" type="qcurve"/>
      <point x="1040" y="944" type="line"/>
      <point x="743" y="944" type="line"/>
      <point x="566" y="422" type="line" smooth="yes"/>
      <point x="555" y="389"/>
      <point x="547" y="355"/>
      <point x="541" y="320" type="qcurve"/>
      <point x="536" y="320" type="line"/>
      <point x="531" y="355"/>
      <point x="523" y="389"/>
      <point x="511" y="422" type="qcurve" smooth="yes"/>
      <point x="314" y="944" type="line"/>
      <point x="-17" y="944" type="line"/>
      <point x="409" y="-59" type="line"/>
      <point x="394" y="-91" type="line" smooth="yes"/>
      <point x="374" y="-150"/>
      <point x="277" y="-215"/>
      <point x="202" y="-215" type="qcurve" smooth="yes"/>
      <point x="171" y="-215"/>
      <point x="111" y="-207"/>
      <point x="85" y="-198" type="qcurve"/>
    </contour>
    <contour>
      <point x="552" y="972" type="move" name="top"/>
    </contour>
  </outline>
</glyph>
<glyph name="z" format="1">
  <advance width="1018"/>
  <unicode hex="007A"/>
  <outline>
    <contour>
      <point x="16" y="0" type="line"/>
      <point x="1006" y="0" type="line"/>
      <point x="1006" y="222" type="line"/>
      <point x="449" y="222" type="line"/>
      <point x="980" y="752" type="line"/>
      <point x="980" y="944" type="line"/>
      <point x="24" y="944" type="line"/>
      <point x="24" y="722" type="line"/>
      <point x="548" y="722" type="line"/>
      <point x="16" y="193" type="line"/>
    </contour>
  </outline>
</glyph>
<glyph name="asciitilde" format="1">
  <advance width="1404"/>
  <unicode hex="007E"/>
  <outline>
    <contour>
      <point x="109" y="411" type="qcurve"/>
      <point x="393" y="411" type="line"/>
      <point x="393" y="486"/>
      <point x="443" y="580"/>
      <point x="499" y="580" type="qcurve" smooth="yes"/>
      <point x="571" y="580"/>
      <point x="786" y="388"/>
      <point x="917" y="388" type="qcurve" smooth="yes"/>
      <point x="1096" y="388"/>
      <point x="1296" y="630"/>
      <point x="1296" y="813" type="qcurve"/>
      <point x="1012" y="813" type="line"/>
      <point x="1012" y="739"/>
      <point x="961" y="644"/>
      <point x="906" y="644" type="qcurve" smooth="yes"/>
      <point x="833" y="644"/>
      <point x="619" y="837"/>
      <point x="488" y="837" type="qcurve" smooth="yes"/>
      <point x="309" y="837"/>
      <point x="109" y="595"/>
    </contour>
  </outline>
</glyph>
<glyph name="cent" format="1">
  <advance width="1229"/>
  <unicode hex="00A2"/>
  <outline>
    <contour>
      <point x="48" y="520" type="line" smooth="yes"/>
      <point x="48" y="279"/>
      <point x="376" y="-10"/>
      <point x="671" y="-10" type="qcurve" smooth="yes"/>
      <point x="945" y="-10"/>
      <point x="1231" y="216"/>
      <point x="1231" y="376" type="qcurve"/>
      <point x="1231" y="381" type="line"/>
      <point x="905" y="381" type="line"/>
      <point x="905" y="376" type="line"/>
      <point x="905" y="305"/>
      <point x="788" y="208"/>
      <point x="671" y="208" type="qcurve" smooth="yes"/>
      <point x="532" y="208"/>
      <point x="391" y="383"/>
      <point x="391" y="520" type="qcurve" smooth="yes"/>
      <point x="391" y="552" type="line" smooth="yes"/>
      <point x="391" y="690"/>
      <point x="532" y="864"/>
      <point x="671" y="864" type="qcurve" smooth="yes"/>
      <point x="788" y="864"/>
      <point x="905" y="768"/>
      <point x="905" y="696" type="qcurve" smooth="yes"/>
      <point x="905" y="691" type="line"/>
      <point x="1231" y="691" type="line"/>
      <point x="1231" y="696" type="line" smooth="yes"/>
      <point x="1231" y="856"/>
      <point x="945" y="1082"/>
      <point x="671" y="1082" type="qcurve" smooth="yes"/>
      <point x="376" y="1082"/>
      <point x="48" y="793"/>
      <point x="48" y="552" type="qcurve" smooth="yes"/>
    </contour>
    <contour>
      <point x="535" y="-256" type="line"/>
      <point x="787" y="-256" type="line"/>
      <point x="787" y="50" type="line"/>
      <point x="779" y="56" type="line"/>
      <point x="779" y="541" type="line"/>
      <point x="544" y="541" type="line"/>
      <point x="544" y="56" type="line"/>
      <point x="535" y="50" type="line"/>
    </contour>
    <contour>
      <point x="544" y="541" type="line"/>
      <point x="779" y="541" type="line"/>
      <point x="779" y="1026" type="line"/>
      <point x="787" y="1032" type="line"/>
      <point x="787" y="1328" type="line"/>
      <point x="535" y="1328" type="line"/>
      <point x="535" y="1032" type="line"/>
      <point x="544" y="1026" type="line"/>
    </contour>
  </outline>
</glyph>
<glyph name="ordfeminine" format="1">
  <advance width="1065"/>
  <unicode hex="00AA"/>
  <outline>
    <contour>
      <point x="24" y="873" type="qcurve" smooth="yes"/>
      <point x="24" y="746"/>
      <point x="236" y="611"/>
      <point x="402" y="611" type="qcurve" smooth="yes"/>
      <point x="517" y="611"/>
      <point x="668" y="685"/>
      <point x="694" y="740" type="qcurve"/>
      <point x="697" y="709"/>
      <point x="711" y="646"/>
      <point x="721" y="627" type="qcurve"/>
      <point x="1013" y="627" type="line"/>
      <point x="1013" y="639" type="line"/>
      <point x="1001" y="674"/>
      <point x="987" y="764"/>
      <point x="987" y="815" type="qcurve" smooth="yes"/>
      <point x="987" y="1192" type="line" smooth="yes"/>
      <point x="987" y="1332"/>
      <point x="752" y="1476"/>
      <point x="535" y="1476" type="qcurve" smooth="yes"/>
      <point x="314" y="1476"/>
      <point x="64" y="1326"/>
      <point x="64" y="1216" type="qcurve" smooth="yes"/>
      <point x="64" y="1210" type="line"/>
      <point x="369" y="1210" type="line"/>
      <point x="369" y="1216" type="line" smooth="yes"/>
      <point x="369" y="1258"/>
      <point x="448" y="1313"/>
      <point x="533" y="1313" type="qcurve" smooth="yes"/>
      <point x="615" y="1313"/>
      <point x="691" y="1244"/>
      <point x="691" y="1186" type="qcurve" smooth="yes"/>
      <point x="691" y="1139" type="line"/>
      <point x="519" y="1139" type="line" smooth="yes"/>
      <point x="295" y="1139"/>
      <point x="24" y="1000"/>
    </contour>
    <contour>
      <point x="329" y="881" type="qcurve" smooth="yes"/>
      <point x="329" y="932"/>
      <point x="433" y="991"/>
      <point x="533" y="991" type="qcurve" smooth="yes"/>
      <point x="691" y="991" type="line"/>
      <point x="691" y="925" type="line"/>
      <point x="691" y="867"/>
      <point x="574" y="780"/>
      <point x="486" y="780" type="qcurve" smooth="yes"/>
      <point x="407" y="780"/>
      <point x="329" y="833"/>
    </contour>
  </outline>
</glyph>
<glyph name="guillemetleft" format="1">
  <advance width="1304"/>
  <unicode hex="00AB"/>
  <outline>
    <contour>
      <point x="386" y="179" type="line"/>
      <point x="698" y="179" type="line"/>
      <point x="397" y="602" type="line"/>
      <point x="698" y="1025" type="line"/>
      <point x="386" y="1025" type="line"/>
      <point x="30" y="612" type="line"/>
      <point x="30" y="592" type="line"/>
    </contour>
    <contour>
      <point x="969" y="179" type="line"/>
      <point x="1281" y="179" type="line"/>
      <point x="979" y="602" type="line"/>
      <point x="1281" y="1025" type="line"/>
      <point x="969" y="1025" type="line"/>
      <point x="612" y="612" type="line"/>
      <point x="612" y="592" type="line"/>
    </contour>
  </outline>
</glyph>
<glyph name="registered" format="1">
  <advance width="1785"/>
  <unicode hex="00AE"/>
  <outline>
    <contour>
      <point x="52" y="698" type="qcurve" smooth="yes"/>
      <point x="52" y="350"/>
      <point x="524" y="-82"/>
      <point x="893" y="-82" type="qcurve" smooth="yes"/>
      <point x="1261" y="-82"/>
      <point x="1734" y="350"/>
      <point x="1734" y="698" type="qcurve" smooth="yes"/>
      <point x="1734" y="1046"/>
      <point x="1260" y="1478"/>
      <point x="893" y="1478" type="qcurve" smooth="yes"/>
      <point x="524" y="1478"/>
      <point x="52" y="1046"/>
    </contour>
    <contour>
      <point x="276" y="698" type="qcurve" smooth="yes"/>
      <point x="276" y="957"/>
      <point x="613" y="1287"/>
      <point x="893" y="1287" type="qcurve" smooth="yes"/>
      <point x="1171" y="1287"/>
      <point x="1510" y="957"/>
      <point x="1510" y="698" type="qcurve" smooth="yes"/>
      <point x="1510" y="439"/>
      <point x="1172" y="109"/>
      <point x="893" y="109" type="qcurve" smooth="yes"/>
      <point x="614" y="109"/>
      <point x="276" y="439"/>
    </contour>
    <contour>
      <point x="521" y="284" type="line"/>
      <point x="762" y="284" type="line"/>
      <point x="762" y="567" type="line"/>
      <point x="889" y="567" type="line" smooth="yes"/>
      <point x="1080" y="567"/>
      <point x="1311" y="721"/>
      <point x="1311" y="855" type="qcurve" smooth="yes"/>
      <point x="1311" y="987"/>
      <point x="1080" y="1132"/>
      <point x="889" y="1132" type="qcurve" smooth="yes"/>
      <point x="521" y="1132" type="line"/>
    </contour>
    <contour>
      <point x="762" y="729" type="line"/>
      <point x="762" y="970" type="line"/>
      <point x="889" y="970" type="line" smooth="yes"/>
      <point x="968" y="970"/>
      <point x="1052" y="908"/>
      <point x="1052" y="849" type="qcurve" smooth="yes"/>
      <point x="1052" y="791"/>
      <point x="968" y="729"/>
      <point x="889" y="729" type="qcurve" smooth="yes"/>
    </contour>
    <contour>
      <point x="1056" y="284" type="line"/>
      <point x="1326" y="284" type="line"/>
      <point x="1089" y="651" type="line"/>
      <point x="826" y="651" type="line"/>
    </contour>
  </outline>
</glyph>
<glyph name="macron" format="1">
  <advance width="924"/>
  <unicode hex="00AF"/>
  <outline>
    <contour>
      <point x="121" y="1159" type="line"/>
      <point x="803" y="1159" type="line"/>
      <point x="803" y="1377" type="line"/>
      <point x="121" y="1377" type="line"/>
    </contour>
    <contour>
      <point x="466" y="1052" type="move" name="_top"/>
    </contour>
  </outline>
</glyph>
<glyph name="mu.math" format="1">
  <advance width="1329"/>
  <unicode hex="00B5"/>
  <outline>
    <contour>
      <point x="106" y="-416" type="line"/>
      <point x="432" y="-416" type="line"/>
      <point x="432" y="43" type="line"/>
      <point x="464" y="15"/>
      <point x="565" y="-20"/>
      <point x="621" y="-20" type="qcurve" smooth="yes"/>
      <point x="705" y="-20"/>
      <point x="843" y="61"/>
      <point x="894" y="127" type="qcurve"/>
      <point x="900" y="127" type="line"/>
      <point x="906" y="0" type="line"/>
      <point x="1224" y="0" type="line"/>
      <point x="1224" y="1063" type="line"/>
      <point x="889" y="1063" type="line"/>
      <point x="889" y="356" type="line"/>
      <point x="853" y="287"/>
      <point x="726" y="212"/>
      <point x="642" y="212" type="qcurve" smooth="yes"/>
      <point x="546" y="212"/>
      <point x="440" y="310"/>
      <point x="440" y="415" type="qcurve" smooth="yes"/>
      <point x="440" y="1063" type="line"/>
      <point x="106" y="1063" type="line"/>
    </contour>
  </outline>
</glyph>
<glyph name="onesuperior" format="1">
  <advance width="666"/>
  <unicode hex="00B9"/>
  <outline>
    <contour>
      <point x="453" y="1456" type="line"/>
      <point x="435" y="1456" type="line"/>
      <point x="81" y="1340" type="line"/>
      <point x="81" y="1211" type="line"/>
      <point x="297" y="1268" type="line"/>
      <point x="297" y="667" type="line"/>
      <point x="453" y="667" type="line"/>
    </contour>
  </outline>
</glyph>
<glyph name="questiondown" format="1">
  <advance width="1245"/>
  <unicode hex="00BF"/>
  <outline>
    <contour>
      <point x="69" y="100" type="qcurve" smooth="yes"/>
      <point x="69" y="-90"/>
      <point x="359" y="-300"/>
      <point x="622" y="-300" type="qcurve" smooth="yes"/>
      <point x="886" y="-300"/>
      <point x="1184" y="-94"/>
      <point x="1184" y="96" type="qcurve" smooth="yes"/>
      <point x="1184" y="128" type="line"/>
      <point x="833" y="128" type="line"/>
      <point x="833" y="96" type="line" smooth="yes"/>
      <point x="833" y="14"/>
      <point x="725" y="-70"/>
      <point x="622" y="-70" type="qcurve" smooth="yes"/>
      <point x="522" y="-70"/>
      <point x="419" y="14"/>
      <point x="419" y="100" type="qcurve" smooth="yes"/>
      <point x="419" y="179"/>
      <point x="500" y="284"/>
      <point x="611" y="355" type="qcurve" smooth="yes"/>
      <point x="742" y="447"/>
      <point x="840" y="608"/>
      <point x="840" y="731" type="qcurve" smooth="yes"/>
      <point x="840" y="741" type="line"/>
      <point x="489" y="741" type="line"/>
      <point x="489" y="731" type="line" smooth="yes"/>
      <point x="489" y="666"/>
      <point x="425" y="549"/>
      <point x="321" y="485" type="qcurve" smooth="yes"/>
      <point x="197" y="412"/>
      <point x="69" y="224"/>
    </contour>
    <contour>
      <point x="447" y="1029" type="qcurve" smooth="yes"/>
      <point x="447" y="956"/>
      <point x="558" y="861"/>
      <point x="661" y="861" type="qcurve" smooth="yes"/>
      <point x="765" y="861"/>
      <point x="875" y="956"/>
      <point x="875" y="1029" type="qcurve" smooth="yes"/>
      <point x="875" y="1103"/>
      <point x="765" y="1198"/>
      <point x="661" y="1198" type="qcurve" smooth="yes"/>
      <point x="558" y="1198"/>
      <point x="447" y="1103"/>
    </contour>
  </outline>
</glyph>
<glyph name="multiply" format="1">
  <advance width="1085"/>
  <unicode hex="00D7"/>
  <outline>
    <contour>
      <point x="127" y="336" type="line"/>
      <point x="596" y="524" type="line"/>
      <point x="957" y="1018" type="line"/>
      <point x="491" y="824" type="line"/>
    </contour>
    <contour>
      <point x="63" y="960" type="line"/>
      <point x="805" y="201" type="line"/>
      <point x="1023" y="388" type="line"/>
      <point x="279" y="1152" type="line"/>
    </contour>
  </outline>
</glyph>
<glyph name="ae" format="1">
  <advance width="1955"/>
  <unicode hex="00E6"/>
  <outline>
    <contour>
      <point x="30" y="271" type="qcurve" smooth="yes"/>
      <point x="30" y="132"/>
      <point x="249" y="-17"/>
      <point x="440" y="-17" type="qcurve" smooth="yes"/>
      <point x="611" y="-17"/>
      <point x="867" y="50"/>
      <point x="935" y="115" type="qcurve"/>
      <point x="1014" y="46"/>
      <point x="1241" y="-27"/>
      <point x="1380" y="-27" type="qcurve" smooth="yes"/>
      <point x="1565" y="-27"/>
      <point x="1823" y="82"/>
      <point x="1875" y="157" type="qcurve"/>
      <point x="1700" y="307" type="line"/>
      <point x="1665" y="257"/>
      <point x="1502" y="193"/>
      <point x="1393" y="193" type="qcurve"/>
      <point x="1237" y="193"/>
      <point x="1083" y="339"/>
      <point x="1083" y="457" type="qcurve" smooth="yes"/>
      <point x="1083" y="486" type="line" smooth="yes"/>
      <point x="1083" y="604"/>
      <point x="1224" y="756"/>
      <point x="1365" y="756" type="qcurve"/>
      <point x="1482" y="756"/>
      <point x="1599" y="654"/>
      <point x="1604" y="570" type="qcurve"/>
      <point x="1604" y="582" type="line"/>
      <point x="1013" y="582" type="line"/>
      <point x="1013" y="399" type="line"/>
      <point x="1916" y="399" type="line"/>
      <point x="1916" y="501" type="line" smooth="yes"/>
      <point x="1916" y="717"/>
      <point x="1627" y="971"/>
      <point x="1363" y="971" type="qcurve" smooth="yes"/>
      <point x="1240" y="971"/>
      <point x="1047" y="917"/>
      <point x="978" y="868" type="qcurve"/>
      <point x="925" y="915"/>
      <point x="742" y="969"/>
      <point x="616" y="969" type="qcurve" smooth="yes"/>
      <point x="362" y="969"/>
      <point x="82" y="793"/>
      <point x="82" y="666" type="qcurve" smooth="yes"/>
      <point x="82" y="644" type="line"/>
      <point x="395" y="644" type="line"/>
      <point x="395" y="661" type="line" smooth="yes"/>
      <point x="395" y="706"/>
      <point x="498" y="769"/>
      <point x="604" y="769" type="qcurve" smooth="yes"/>
      <point x="706" y="769"/>
      <point x="805" y="705"/>
      <point x="805" y="655" type="qcurve" smooth="yes"/>
      <point x="805" y="589" type="line"/>
      <point x="588" y="589" type="line" smooth="yes"/>
      <point x="306" y="589"/>
      <point x="30" y="430"/>
    </contour>
    <contour>
      <point x="342" y="290" type="qcurve" smooth="yes"/>
      <point x="342" y="352"/>
      <point x="473" y="413"/>
      <point x="608" y="413" type="qcurve" smooth="yes"/>
      <point x="805" y="413" type="line"/>
      <point x="805" y="334" type="line"/>
      <point x="805" y="277"/>
      <point x="647" y="186"/>
      <point x="520" y="186" type="qcurve"/>
      <point x="427" y="186"/>
      <point x="342" y="240"/>
    </contour>
  </outline>
</glyph>
<glyph name="oslash" format="1">
  <advance width="1384"/>
  <unicode hex="00F8"/>
  <outline>
    <contour>
      <point x="38" y="515" type="line" smooth="yes"/>
      <point x="38" y="270"/>
      <point x="387" y="-30"/>
      <point x="692" y="-30" type="qcurve" smooth="yes"/>
      <point x="997" y="-30"/>
      <point x="1346" y="270"/>
      <point x="1346" y="515" type="qcurve" smooth="yes"/>
      <point x="1346" y="547" type="line" smooth="yes"/>
      <point x="1346" y="792"/>
      <point x="997" y="1093"/>
      <point x="692" y="1093" type="qcurve" smooth="yes"/>
      <point x="387" y="1093"/>
      <point x="38" y="792"/>
      <point x="38" y="547" type="qcurve" smooth="yes"/>
    </contour>
    <contour>
      <point x="354" y="547" type="line" smooth="yes"/>
      <point x="354" y="684"/>
      <point x="526" y="865"/>
      <point x="692" y="865" type="qcurve" smooth="yes"/>
      <point x="857" y="865"/>
      <point x="1030" y="684"/>
      <point x="1030" y="547" type="qcurve" smooth="yes"/>
      <point x="1030" y="515" type="line" smooth="yes"/>
      <point x="1030" y="379"/>
      <point x="857" y="197"/>
      <point x="692" y="197" type="qcurve" smooth="yes"/>
      <point x="526" y="197"/>
      <point x="354" y="379"/>
      <point x="354" y="515" type="qcurve" smooth="yes"/>
    </contour>
    <contour>
      <point x="232" y="-120" type="line"/>
      <point x="469" y="-120" type="line"/>
      <point x="567" y="72" type="line"/>
      <point x="563" y="72" type="line"/>
      <point x="800" y="531" type="line"/>
      <point x="582" y="531" type="line"/>
      <point x="382" y="153" type="line"/>
      <point x="377" y="153" type="line"/>
    </contour>
    <contour>
      <point x="582" y="531" type="line"/>
      <point x="800" y="531" type="line"/>
      <point x="1000" y="910" type="line"/>
      <point x="1005" y="910" type="line"/>
      <point x="1150" y="1183" type="line"/>
      <point x="913" y="1183" type="line"/>
      <point x="813" y="988" type="line"/>
      <point x="818" y="988" type="line"/>
    </contour>
  </outline>
</glyph>
<glyph name="gravecmb" format="1">
  <advance width="0"/>
  <unicode hex="0300"/>
  <outline>
    <contour>
      <point x="-32" y="1156" type="line"/>
      <point x="79" y="1156" type="line"/>
      <point x="-148" y="1456" type="line"/>
      <point x="-276" y="1456" type="line"/>
    </contour>
    <contour>
      <point x="-11" y="1052" type="move" name="_top"/>
    </contour>
  </outline>
</glyph>
<glyph name="acutecmb" format="1">
  <advance width="0"/>
  <unicode hex="0301"/>
  <outline>
    <contour>
      <point x="-79" y="1156" type="line"/>
      <point x="32" y="1156" type="line"/>
      <point x="276" y="1456" type="line"/>
      <point x="148" y="1456" type="line"/>
    </contour>
    <contour>
      <point x="-11" y="1052" type="move" name="_top"/>
    </contour>
  </outline>
</glyph>
<glyph name="tildecmb" format="1">
  <advance width="0"/>
  <unicode hex="0303"/>
  <outline>
    <contour>
      <point x="-313" y="1148" type="qcurve"/>
      <point x="-228" y="1142" type="line"/>
      <point x="-228" y="1226"/>
      <point x="-198" y="1327"/>
      <point x="-165" y="1327" type="qcurve" smooth="yes"/>
      <point x="-113" y="1327"/>
      <point x="85" y="1154"/>
      <point x="171" y="1154" type="qcurve" smooth="yes"/>
      <point x="243" y="1154"/>
      <point x="312" y="1294"/>
      <point x="312" y="1415" type="qcurve"/>
      <point x="228" y="1420" type="line"/>
      <point x="228" y="1336"/>
      <point x="198" y="1235"/>
      <point x="164" y="1235" type="qcurve" smooth="yes"/>
      <point x="117" y="1235"/>
      <point x="-82" y="1408"/>
      <point x="-171" y="1408" type="qcurve" smooth="yes"/>
      <point x="-244" y="1408"/>
      <point x="-313" y="1270"/>
    </contour>
    <contour>
      <point x="-25" y="1052" type="move" name="_top"/>
    </contour>
  </outline>
</glyph>
<glyph name="ringcmb" format="1">
  <advance width="0"/>
  <unicode hex="030A"/>
  <outline>
    <contour>
      <point x="-198" y="1303" type="qcurve" smooth="yes"/>
      <point x="-198" y="1226"/>
      <point x="-87" y="1125"/>
      <point x="1" y="1125" type="qcurve" smooth="yes"/>
      <point x="89" y="1125"/>
      <point x="198" y="1225"/>
      <point x="198" y="1302" type="qcurve" smooth="yes"/>
      <point x="198" y="1379"/>
      <point x="89" y="1480"/>
      <point x="1" y="1480" type="qcurve" smooth="yes"/>
      <point x="-87" y="1480"/>
      <point x="-198" y="1379"/>
    </contour>
    <contour>
      <point x="-115" y="1304" type="qcurve" smooth="yes"/>
      <point x="-115" y="1352"/>
      <point x="-52" y="1415"/>
      <point x="1" y="1415" type="qcurve" smooth="yes"/>
      <point x="53" y="1415"/>
      <point x="115" y="1352"/>
      <point x="115" y="1304" type="qcurve" smooth="yes"/>
      <point x="115" y="1254"/>
      <point x="53" y="1190"/>
      <point x="1" y="1190" type="qcurve" smooth="yes"/>
      <point x="-52" y="1190"/>
      <point x="-115" y="1254"/>
    </contour>
    <contour>
      <point x="-17" y="1052" type="move" name="_top"/>
    </contour>
  </outline>
</glyph>
<glyph name="quotedblleft" format="1">
  <advance width="967"/>
  <unicode hex="201C"/>
  <outline>
    <contour>
      <point x="230" y="920" type="line"/>
      <point x="516" y="920" type="line"/>
      <point x="516" y="1103" type="line" smooth="yes"/>
      <point x="516" y="1206"/>
      <point x="582" y="1370"/>
      <point x="651" y="1452" type="qcurve"/>
      <point x="477" y="1564" type="line"/>
      <point x="357" y="1474"/>
      <point x="230" y="1242"/>
      <point x="230" y="1103" type="qcurve" smooth="yes"/>
    </contour>
    <contour>
      <point x="412" y="920" type="line"/>
      <point x="698" y="920" type="line"/>
      <point x="698" y="1103" type="line" smooth="yes"/>
      <point x="698" y="1206"/>
      <point x="764" y="1370"/>
      <point x="833" y="1452" type="qcurve"/>
      <point x="659" y="1564" type="line"/>
      <point x="539" y="1474"/>
      <point x="412" y="1242"/>
      <point x="412" y="1103" type="qcurve" smooth="yes"/>
    </contour>
  </outline>
</glyph>
<glyph name="fraction" format="1">
  <advance width="1017"/>
  <unicode hex="2044"/>
  <outline>
    <contour>
      <point x="-12" y="79" type="line"/>
      <point x="191" y="-30" type="line"/>
      <point x="1030" y="1377" type="line"/>
      <point x="827" y="1486" type="line"/>
    </contour>
  </outline>
</glyph>
<glyph name="indianrupee" format="1">
  <advance width="1163"/>
  <unicode hex="20B9"/>
  <outline>
    <contour>
      <point x="57" y="544" type="line"/>
      <point x="557" y="0" type="line"/>
      <point x="1031" y="0" type="line"/>
      <point x="517" y="544" type="line"/>
      <point x="518" y="544" type="line" smooth="yes"/>
      <point x="736" y="544"/>
      <point x="966" y="784"/>
      <point x="966" y="978" type="qcurve" smooth="yes"/>
      <point x="966" y="1050"/>
      <point x="929" y="1185"/>
      <point x="881" y="1232" type="qcurve"/>
      <point x="1090" y="1232" type="line"/>
      <point x="1148" y="1456" type="line"/>
      <point x="73" y="1456" type="line"/>
      <point x="15" y="1232" type="line"/>
      <point x="335" y="1232" type="line" smooth="yes"/>
      <point x="510" y="1232"/>
      <point x="646" y="1111"/>
      <point x="646" y="1003" type="qcurve" smooth="yes"/>
      <point x="646" y="895"/>
      <point x="510" y="769"/>
      <point x="335" y="769" type="qcurve" smooth="yes"/>
      <point x="116" y="769" type="line"/>
    </contour>
    <contour>
      <point x="58" y="891" type="line"/>
      <point x="1095" y="891" type="line"/>
      <point x="1148" y="1109" type="line"/>
      <point x="111" y="1109" type="line"/>
    </contour>
  </outline>
</glyph>
<glyph name="divisionslash" format="1">
  <advance width="715"/>
  <unicode hex="2215"/>
  <outline>
    <contour>
      <point x="-92" y="-125" type="line"/>
      <point x="177" y="-125" type="line"/>
      <point x="758" y="1456" type="line"/>
      <point x="489" y="1456" type="line"/>
    </contour>
  </outline>
</glyph>
<glyph name="bitcoin" format="1">
  <advance width="1432"/>
  <outline>
    <contour>
      <point x="128" y="0" type="line"/>
      <point x="776" y="0" type="line" smooth="yes"/>
      <point x="1058" y="0"/>
      <point x="1388" y="217"/>
      <point x="1388" y="416" type="qcurve" smooth="yes"/>
      <point x="1388" y="556"/>
      <point x="1244" y="731"/>
      <point x="1123" y="764" type="qcurve"/>
      <point x="1123" y="768" type="line"/>
      <point x="1224" y="801"/>
      <point x="1348" y="953"/>
      <point x="1348" y="1073" type="qcurve" smooth="yes"/>
      <point x="1348" y="1267"/>
      <point x="1030" y="1456"/>
      <point x="745" y="1456" type="qcurve" smooth="yes"/>
      <point x="128" y="1456" type="line"/>
    </contour>
    <contour>
      <point x="471" y="224" type="line"/>
      <point x="471" y="650" type="line"/>
      <point x="776" y="650" type="line" smooth="yes"/>
      <point x="910" y="650"/>
      <point x="1044" y="534"/>
      <point x="1044" y="431" type="qcurve" smooth="yes"/>
      <point x="1044" y="335"/>
      <point x="910" y="224"/>
      <point x="776" y="224" type="qcurve" smooth="yes"/>
    </contour>
    <contour>
      <point x="471" y="866" type="line"/>
      <point x="471" y="1232" type="line"/>
      <point x="745" y="1232" type="line" smooth="yes"/>
      <point x="877" y="1232"/>
      <point x="1005" y="1140"/>
      <point x="1005" y="1056" type="qcurve" smooth="yes"/>
      <point x="1005" y="967"/>
      <point x="877" y="868"/>
      <point x="745" y="866" type="qcurve" smooth="yes"/>
    </contour>
    <contour>
      <point x="2" y="337" type="line"/>
      <point x="282" y="337" type="line"/>
      <point x="287" y="350" type="line"/>
      <point x="675" y="350" type="line"/>
      <point x="675" y="538" type="line"/>
      <point x="287" y="538" type="line"/>
      <point x="282" y="552" type="line"/>
      <point x="2" y="552" type="line"/>
    </contour>
  </outline>
</glyph>
<glyph name="eight.pnum" format="1">
  <advance width="1308"/>
  <outline>
    <contour>
      <point x="32" y="385" type="qcurve" smooth="yes"/>
      <point x="32" y="187"/>
      <point x="374" y="-30"/>
      <point x="654" y="-30" type="qcurve" smooth="yes"/>
      <point x="934" y="-30"/>
      <point x="1275" y="187"/>
      <point x="1275" y="385" type="qcurve" smooth="yes"/>
      <point x="1275" y="516"/>
      <point x="1111" y="700"/>
      <point x="964" y="743" type="qcurve"/>
      <point x="964" y="747" type="line"/>
      <point x="1081" y="794"/>
      <point x="1225" y="970"/>
      <point x="1225" y="1088" type="qcurve" smooth="yes"/>
      <point x="1225" y="1270"/>
      <point x="909" y="1484"/>
      <point x="654" y="1484" type="qcurve" smooth="yes"/>
      <point x="399" y="1484"/>
      <point x="82" y="1268"/>
      <point x="82" y="1088" type="qcurve" smooth="yes"/>
      <point x="82" y="970"/>
      <point x="227" y="795"/>
      <point x="344" y="747" type="qcurve"/>
      <point x="344" y="743" type="line"/>
      <point x="196" y="699"/>
      <point x="32" y="516"/>
    </contour>
    <contour>
      <point x="385" y="406" type="qcurve" smooth="yes"/>
      <point x="385" y="510"/>
      <point x="524" y="634"/>
      <point x="654" y="634" type="qcurve" smooth="yes"/>
      <point x="784" y="634"/>
      <point x="922" y="510"/>
      <point x="922" y="406" type="qcurve" smooth="yes"/>
      <point x="922" y="311"/>
      <point x="784" y="194"/>
      <point x="654" y="194" type="qcurve" smooth="yes"/>
      <point x="524" y="194"/>
      <point x="385" y="311"/>
    </contour>
    <contour>
      <point x="426" y="1067" type="qcurve" smooth="yes"/>
      <point x="426" y="1152"/>
      <point x="545" y="1262"/>
      <point x="654" y="1262" type="qcurve" smooth="yes"/>
      <point x="762" y="1262"/>
      <point x="883" y="1154"/>
      <point x="883" y="1067" type="qcurve" smooth="yes"/>
      <point x="883" y="973"/>
      <point x="764" y="857"/>
      <point x="654" y="857" type="qcurve" smooth="yes"/>
      <point x="544" y="857"/>
      <point x="426" y="973"/>
    </contour>
  </outline>
</glyph>
<glyph name="seven.pnum" format="1">
  <advance width="1356"/>
  <outline>
    <contour>
      <point x="281" y="0" type="line"/>
      <point x="663" y="0" type="line"/>
      <point x="1241" y="1261" type="line"/>
      <point x="1241" y="1456" type="line"/>
      <point x="86" y="1456" type="line"/>
      <point x="86" y="1194" type="line"/>
      <point x="846" y="1194" type="line"/>
    </contour>
  </outline>
</glyph>
